<svg width="800" height="800" viewBox="0 0 64 64" xml:space="preserve" xmlns="http://www.w3.org/2000/svg"><g/><g/><g/><path d="M37 7H7v25h30zm-2 23H9V9h26z"/><path d="M28 36h13V3H3v33h13v6H3v19h39V42H28zM5 34V5h34v29zm13 2h8v6h-8zm22 8v15H5V44zm4-29v46h17V15zm15 44H46V17h13z"/><path d="M51 21h2v23h-2zm1 35c2.206 0 4-1.794 4-4s-1.794-4-4-4-4 1.794-4 4 1.794 4 4 4m0-6c1.103 0 2 .897 2 2s-.897 2-2 2-2-.897-2-2 .897-2 2-2m-40 1h20v2H12z"/><g/><g/><g/><g/><g/><g/><g/><g/><g/><g/><g/><g/><g/><g/><g/><g/><g/></svg>